<svg width="18" height="18" viewBox="0 0 18 18" fill="none" xmlns="http://www.w3.org/2000/svg">
<path d="M9 1.5C4.86 1.5 1.5 4.86 1.5 9C1.5 13.14 4.86 16.5 9 16.5C13.14 16.5 16.5 13.14 16.5 9C16.5 4.86 13.14 1.5 9 1.5ZM5.5125 13.875C6.495 13.17 7.695 12.75 9 12.75C10.305 12.75 11.505 13.17 12.4875 13.875C11.505 14.58 10.305 15 9 15C7.695 15 6.495 14.58 5.5125 13.875ZM13.605 12.84C12.3375 11.85 10.74 11.25 9 11.25C7.26 11.25 5.6625 11.85 4.395 12.84C3.525 11.7975 3 10.4625 3 9C3 5.685 5.685 3 9 3C12.315 3 15 5.685 15 9C15 10.4625 14.475 11.7975 13.605 12.84Z" fill="#44C378"/>
<path d="M9 4.5C7.5525 4.5 6.375 5.6775 6.375 7.125C6.375 8.5725 7.5525 9.75 9 9.75C10.4475 9.75 11.625 8.5725 11.625 7.125C11.625 5.6775 10.4475 4.5 9 4.5ZM9 8.25C8.3775 8.25 7.875 7.7475 7.875 7.125C7.875 6.5025 8.3775 6 9 6C9.6225 6 10.125 6.5025 10.125 7.125C10.125 7.7475 9.6225 8.25 9 8.25Z" fill="#44C378"/>
</svg>
