<svg width="16" height="16" viewBox="0 0 16 16" fill="none" xmlns="http://www.w3.org/2000/svg">
<path d="M13.4 11.5667C13.3961 11.0443 13.1879 10.5442 12.82 10.1733L12.6667 10C12.0919 9.4253 11.3128 9.1017 10.5 9.10001C10.037 9.10351 9.58087 9.21298 9.16667 9.42001L8.60001 9.70001C8.11766 9.46641 7.67816 9.15312 7.3 8.77335C6.921 8.38342 6.61003 7.93274 6.38 7.44001L6.66001 6.87335C6.87048 6.46013 6.9823 6.00373 6.98667 5.54001C6.97974 5.13425 6.89252 4.73388 6.73004 4.362C6.56756 3.99012 6.33303 3.65411 6.04001 3.37335L5.85334 3.19335C5.47863 2.81817 4.97026 2.60715 4.44 2.60668H3.88001C3.34957 2.60668 2.84086 2.81739 2.46579 3.19247C2.09072 3.56754 1.88 4.07625 1.88 4.60668V4.66668C1.90105 5.7603 2.07151 6.84591 2.38668 7.89335C2.79651 9.25002 3.52843 10.4874 4.52001 11.5C5.529 12.4943 6.76442 13.2287 8.12002 13.64C9.1666 13.9597 10.2525 14.1325 11.3467 14.1533H11.3933C11.9238 14.1533 12.4325 13.9426 12.8076 13.5676C13.1826 13.1925 13.3933 12.6838 13.3933 12.1533V11.5933L13.4 11.5667ZM11.4 12.8067C10.4323 12.7912 9.47158 12.6385 8.54667 12.3533C7.39625 12.0059 6.34658 11.3862 5.48667 10.5467C4.64896 9.68655 4.03145 8.63677 3.68667 7.48668C3.40646 6.55854 3.25614 5.59606 3.24001 4.62668C3.24001 4.44987 3.31024 4.2803 3.43527 4.15528C3.56029 4.03025 3.72986 3.96001 3.90667 3.96001H4.46667C4.55441 3.95951 4.64138 3.97632 4.72261 4.0095C4.80383 4.04268 4.87771 4.09156 4.94001 4.15335L5.12 4.33335C5.42992 4.65574 5.60209 5.08616 5.6 5.53335C5.60005 5.80016 5.53603 6.06308 5.41334 6.30001L4.99334 7.14668C4.95372 7.23354 4.93322 7.32789 4.93322 7.42335C4.93322 7.51881 4.95372 7.61316 4.99334 7.70001C5.30136 8.44818 5.75453 9.12793 6.32667 9.70001C6.89853 10.2724 7.57834 10.7256 8.32667 11.0333C8.41353 11.073 8.50788 11.0935 8.60334 11.0935C8.6988 11.0935 8.79315 11.073 8.88 11.0333L9.72668 10.6067C10.0514 10.4413 10.4205 10.3839 10.7801 10.4426C11.1398 10.5014 11.4714 10.6733 11.7267 10.9333L11.9067 11.12C12.0298 11.2442 12.0993 11.4118 12.1 11.5867V12.14C12.1002 12.231 12.0817 12.3211 12.0457 12.4047C12.0097 12.4883 11.957 12.5637 11.8908 12.6261C11.8246 12.6886 11.7463 12.7368 11.6608 12.7679C11.5752 12.7989 11.4842 12.8121 11.3933 12.8067H11.4ZM8.29334 4.93335C8.26861 4.75831 8.31442 4.58062 8.42068 4.43935C8.52695 4.29807 8.68497 4.20479 8.86001 4.18001C8.97095 4.17135 9.08241 4.17135 9.19335 4.18001C9.48047 4.18407 9.76554 4.22897 10.04 4.31335C10.4322 4.43853 10.7887 4.65574 11.0798 4.94685C11.3709 5.23795 11.5882 5.59449 11.7133 5.98668C11.7993 6.2606 11.8421 6.54626 11.84 6.83335C11.851 6.94419 11.851 7.05584 11.84 7.16668C11.8161 7.34349 11.723 7.50358 11.5811 7.61173C11.4392 7.71987 11.2601 7.76722 11.0833 7.74335C10.9065 7.71948 10.7464 7.62635 10.6383 7.48445C10.5301 7.34254 10.4828 7.16349 10.5067 6.98668C10.5067 6.98668 10.5067 6.92001 10.5067 6.83335C10.51 6.68175 10.4875 6.5307 10.44 6.38668C10.3827 6.19783 10.2797 6.02603 10.1402 5.88648C10.0007 5.74694 9.82885 5.64397 9.64001 5.58668C9.49541 5.54093 9.34499 5.51623 9.19335 5.51335C9.14455 5.50904 9.09547 5.50904 9.04667 5.51335C8.95901 5.5255 8.86982 5.52007 8.78428 5.49739C8.69874 5.47471 8.61858 5.43522 8.54846 5.38124C8.47833 5.32725 8.41965 5.25984 8.37585 5.18294C8.33206 5.10605 8.304 5.0212 8.29334 4.93335ZM14.4067 6.18668V6.28001C14.4067 6.45683 14.3364 6.62639 14.2114 6.75142C14.0864 6.87644 13.9168 6.94668 13.74 6.94668C13.5632 6.94668 13.3936 6.87644 13.2686 6.75142C13.1436 6.62639 13.0733 6.45683 13.0733 6.28001V6.21335C13.071 5.89281 13.0239 5.57417 12.9333 5.26668C12.7882 4.74535 12.5124 4.26968 12.1321 3.8847C11.7518 3.49972 11.2795 3.21816 10.76 3.06668C10.4525 2.97614 10.1339 2.92901 9.81334 2.92668H9.75334C9.66579 2.92887 9.57867 2.91379 9.49695 2.88231C9.41523 2.85083 9.34051 2.80356 9.27705 2.7432C9.2136 2.68285 9.16266 2.61058 9.12713 2.53053C9.0916 2.45049 9.07219 2.36423 9.07 2.27668C9.06782 2.18913 9.0829 2.10201 9.11438 2.02029C9.14587 1.93857 9.19312 1.86385 9.25348 1.8004C9.31384 1.73694 9.38612 1.686 9.46616 1.65047C9.54621 1.61495 9.63246 1.59554 9.72001 1.59335H9.81334C10.2651 1.59512 10.7143 1.66249 11.1467 1.79335C11.8745 2.00533 12.5371 2.39749 13.0732 2.93353C13.6092 3.46958 14.0014 4.13218 14.2133 4.86001C14.3422 5.29042 14.4074 5.73739 14.4067 6.18668Z" fill="#44C378"/>
</svg>
