<svg width="6" height="10" viewBox="0 0 6 10" fill="none" xmlns="http://www.w3.org/2000/svg">
<g clip-path="url(#clip0_638_1540)">
<mask id="mask0_638_1540" style="mask-type:luminance" maskUnits="userSpaceOnUse" x="0" y="0" width="6" height="10">
<path d="M6 0H0V10H6V0Z" fill="white"/>
</mask>
<g mask="url(#mask0_638_1540)">
<path d="M3.35442 0.108381C3.38185 0.12013 3.40781 0.134669 3.43183 0.151734L5.73082 2.0159C5.8042 2.06606 5.86564 2.12989 5.91126 2.20334C5.95688 2.2768 5.98569 2.35828 5.99587 2.44265C6.00605 2.52703 5.99737 2.61245 5.97039 2.69354C5.94342 2.77462 5.89872 2.8496 5.83913 2.91375C5.77953 2.97789 5.70634 3.02981 5.62417 3.06621C5.54199 3.10262 5.45262 3.12273 5.36171 3.12526C5.27079 3.1278 5.18029 3.11271 5.09593 3.08096C5.01158 3.0492 4.93519 3.00146 4.8716 2.94075L3.77242 2.05202V9.27746C3.77242 9.46909 3.69086 9.65287 3.5457 9.78837C3.40053 9.92388 3.20364 10 2.99835 10C2.79305 10 2.59616 9.92388 2.45099 9.78837C2.30583 9.65287 2.22427 9.46909 2.22427 9.27746V2.05202L1.12509 2.94075C0.986517 3.04998 0.807131 3.10335 0.626399 3.08912C0.536909 3.08208 0.449784 3.05865 0.369994 3.02018C0.290205 2.9817 0.219315 2.92893 0.161373 2.86488C0.103431 2.80084 0.0595711 2.72676 0.0322977 2.64689C0.00502435 2.56702 -0.00512799 2.48292 0.00241933 2.39939C0.0176618 2.23069 0.104076 2.07455 0.242651 1.96532L2.56487 0.101156C2.58888 0.0840909 2.61484 0.0695525 2.64227 0.0578034C2.67836 0.0342644 2.71734 0.0148576 2.75838 0H2.87449H2.99835H3.1222L3.23831 0.0505778C3.27935 0.0654354 3.31833 0.0848422 3.35442 0.108381Z" fill="#2C2E31"/>
</g>
</g>
<defs>
<clipPath id="clip0_638_1540">
<rect width="6" height="10" fill="white"/>
</clipPath>
</defs>
</svg>
