<svg width="24" height="24" viewBox="0 0 24 24" fill="none" xmlns="http://www.w3.org/2000/svg">
<g clip-path="url(#clip0_336_933)">
<mask id="mask0_336_933" style="mask-type:luminance" maskUnits="userSpaceOnUse" x="0" y="0" width="24" height="24">
<path d="M24 0H0V24H24V0Z" fill="white"/>
</mask>
<g mask="url(#mask0_336_933)">
<path d="M23.5623 21.4478L18.9196 16.804C22.3967 12.1606 21.4513 5.57752 16.8078 2.10037C12.1644 -1.37677 5.58137 -0.431398 2.10419 4.21205C-1.373 8.85549 -0.427534 15.4386 4.21591 18.9157C7.94655 21.7093 13.072 21.7106 16.8039 18.9187L21.4487 23.5634C22.0323 24.1471 22.9787 24.1471 23.5623 23.5634C24.146 22.9797 24.146 22.0334 23.5623 21.4497V21.4478ZM10.5524 18.0222C6.42648 18.0222 3.08176 14.6775 3.08176 10.5516C3.08176 6.42563 6.42653 3.0809 10.5524 3.0809C14.6783 3.0809 18.0231 6.42563 18.0231 10.5516C18.0187 14.6757 14.6766 18.0179 10.5524 18.0222Z" fill="#2C2E31"/>
</g>
</g>
<defs>
<clipPath id="clip0_336_933">
<rect width="24" height="24" fill="white"/>
</clipPath>
</defs>
</svg>
