<svg width="24" height="24" viewBox="0 0 24 24" fill="none" xmlns="http://www.w3.org/2000/svg">
<path d="M11.0454 3.00001V3.90001H12.9545V3.00001V2.10001H11.0454V3.00001ZM12.9545 21V20.1H11.0454V21V21.9H12.9545V21ZM11.0454 21V20.1C10.4375 20.1 10.0363 19.6479 10.0363 19.2H9.13632H8.23632C8.23632 20.7403 9.54463 21.9 11.0454 21.9V21ZM14.8636 19.2H13.9636C13.9636 19.6479 13.5625 20.1 12.9545 20.1V21V21.9C14.4553 21.9 15.7636 20.7403 15.7636 19.2H14.8636ZM12.9545 3.00001V3.90001C13.5625 3.90001 13.9636 4.35212 13.9636 4.80001H14.8636H15.7636C15.7636 3.25968 14.4553 2.10001 12.9545 2.10001V3.00001ZM11.0454 3.00001V2.10001C9.54463 2.10001 8.23632 3.25968 8.23632 4.80001H9.13632H10.0363C10.0363 4.35212 10.4375 3.90001 11.0454 3.90001V3.00001ZM20.7439 15.7206L19.9764 15.2506L19.0218 16.8094L19.7894 17.2794L20.5569 17.7494L21.5114 16.1906L20.7439 15.7206ZM3.25606 8.27943L4.0236 8.74942L4.97814 7.19057L4.21061 6.72058L3.44308 6.25059L2.48853 7.80943L3.25606 8.27943ZM4.21061 6.72058L4.97814 7.19057C5.24307 6.75792 5.87555 6.57314 6.38819 6.85221L6.81849 6.06173L7.24879 5.27126C5.93521 4.55621 4.23251 4.96138 3.44308 6.25059L4.21061 6.72058ZM3.95484 10.7383L4.38514 9.9478C3.90057 9.68403 3.77935 9.14829 4.0236 8.74942L3.25606 8.27943L2.48853 7.80943C1.67841 9.13241 2.18289 10.7984 3.52454 11.5287L3.95484 10.7383ZM19.7894 17.2794L19.0218 16.8094C18.7569 17.2421 18.1244 17.4269 17.6118 17.1478L17.1815 17.9383L16.7512 18.7287C18.0648 19.4438 19.7675 19.0386 20.5569 17.7494L19.7894 17.2794ZM20.7439 15.7206L21.5114 16.1906C22.3216 14.8676 21.8171 13.2016 20.4754 12.4713L20.0451 13.2617L19.6148 14.0522C20.0994 14.316 20.2206 14.8517 19.9764 15.2506L20.7439 15.7206ZM4.21061 17.2794L4.97814 16.8094L4.02359 15.2506L3.25606 15.7206L2.48853 16.1906L3.44308 17.7494L4.21061 17.2794ZM19.7894 6.72059L19.0218 7.19059L19.9764 8.74943L20.7439 8.27944L21.5114 7.80945L20.5569 6.2506L19.7894 6.72059ZM20.7439 8.27944L19.9764 8.74943C20.2206 9.14831 20.0994 9.68404 19.6148 9.94781L20.0451 10.7383L20.4754 11.5287C21.8171 10.7984 22.3216 9.13243 21.5114 7.80945L20.7439 8.27944ZM17.1815 6.06175L17.6118 6.85222C18.1244 6.57316 18.7569 6.75794 19.0218 7.19059L19.7894 6.72059L20.5569 6.2506C19.7675 4.9614 18.0648 4.55623 16.7512 5.27128L17.1815 6.06175ZM3.25606 15.7206L4.02359 15.2506C3.77935 14.8517 3.90057 14.316 4.38514 14.0522L3.95484 13.2617L3.52454 12.4713C2.18289 13.2016 1.67841 14.8676 2.48853 16.1906L3.25606 15.7206ZM4.21061 17.2794L3.44308 17.7494C4.23251 19.0386 5.93521 19.4438 7.24879 18.7287L6.81849 17.9383L6.38819 17.1478C5.87555 17.4269 5.24307 17.2421 4.97814 16.8094L4.21061 17.2794ZM17.08 6.11699L17.5103 6.90746L17.6118 6.85222L17.1815 6.06175L16.7512 5.27128L16.6497 5.32652L17.08 6.11699ZM6.81849 6.06173L6.38819 6.85221L6.48967 6.90745L6.91997 6.11698L7.35027 5.32651L7.24879 5.27126L6.81849 6.06173ZM17.1815 17.9383L17.6118 17.1478L17.5103 17.0926L17.08 17.883L16.6497 18.6735L16.7512 18.7287L17.1815 17.9383ZM6.91997 17.883L6.48968 17.0926L6.38819 17.1478L6.81849 17.9383L7.24879 18.7287L7.35027 18.6735L6.91997 17.883ZM3.95484 10.7383L3.52454 11.5287C3.89791 11.732 3.89792 12.268 3.52454 12.4713L3.95484 13.2617L4.38514 14.0522C6.01105 13.1671 6.01105 10.8329 4.38514 9.9478L3.95484 10.7383ZM6.91997 17.883L7.35027 18.6735C7.74972 18.4561 8.23632 18.7452 8.23632 19.2H9.13632H10.0363C10.0363 17.3796 8.08857 16.2222 6.48968 17.0926L6.91997 17.883ZM14.8636 19.2H15.7636C15.7636 18.7452 16.2503 18.456 16.6497 18.6735L17.08 17.883L17.5103 17.0926C15.9114 16.2222 13.9636 17.3796 13.9636 19.2H14.8636ZM20.0451 13.2617L20.4754 12.4713C20.1021 12.268 20.1021 11.732 20.4754 11.5287L20.0451 10.7383L19.6148 9.94781C17.9889 10.8329 17.9889 13.1671 19.6148 14.0522L20.0451 13.2617ZM6.91997 6.11698L6.48967 6.90745C8.08856 7.77781 10.0363 6.62044 10.0363 4.80001H9.13632H8.23632C8.23632 5.25481 7.74972 5.54395 7.35027 5.32651L6.91997 6.11698ZM17.08 6.11699L16.6497 5.32652C16.2503 5.54396 15.7636 5.25481 15.7636 4.80001H14.8636H13.9636C13.9636 6.62044 15.9114 7.77782 17.5103 6.90746L17.08 6.11699ZM15 12H14.1C14.1 13.1598 13.1598 14.1 12 14.1V15V15.9C14.1539 15.9 15.9 14.1539 15.9 12H15ZM12 15V14.1C10.8402 14.1 9.89998 13.1598 9.89998 12H8.99998H8.09998C8.09998 14.1539 9.84607 15.9 12 15.9V15ZM8.99998 12H9.89998C9.89998 10.8402 10.8402 9.90001 12 9.90001V9.00001V8.10001C9.84607 8.10001 8.09998 9.8461 8.09998 12H8.99998ZM12 9.00001V9.90001C13.1598 9.90001 14.1 10.8402 14.1 12H15H15.9C15.9 9.8461 14.1539 8.10001 12 8.10001V9.00001Z" fill="#1277E7"/>
</svg>
