<svg width="10" height="10" viewBox="0 0 10 10" fill="none" xmlns="http://www.w3.org/2000/svg">
<path d="M9.75 1.25C9.75 1.44891 9.67098 1.63968 9.53033 1.78033C9.38968 1.92098 9.19891 2 9 2H1.5C1.30109 2 1.11032 1.92098 0.96967 1.78033C0.829018 1.63968 0.75 1.44891 0.75 1.25C0.75 1.05109 0.829018 0.860322 0.96967 0.71967C1.11032 0.579018 1.30109 0.5 1.5 0.5H9C9.19891 0.5 9.38968 0.579018 9.53033 0.71967C9.67098 0.860322 9.75 1.05109 9.75 1.25ZM9 4.25H1.5C1.30109 4.25 1.11032 4.32902 0.96967 4.46967C0.829018 4.61032 0.75 4.80109 0.75 5C0.75 5.19891 0.829018 5.38968 0.96967 5.53033C1.11032 5.67098 1.30109 5.75 1.5 5.75H9C9.19891 5.75 9.38968 5.67098 9.53033 5.53033C9.67098 5.38968 9.75 5.19891 9.75 5C9.75 4.80109 9.67098 4.61032 9.53033 4.46967C9.38968 4.32902 9.19891 4.25 9 4.25ZM9 8H1.5C1.30109 8 1.11032 8.07902 0.96967 8.21967C0.829018 8.36032 0.75 8.55109 0.75 8.75C0.75 8.94891 0.829018 9.13968 0.96967 9.28033C1.11032 9.42098 1.30109 9.5 1.5 9.5H9C9.19891 9.5 9.38968 9.42098 9.53033 9.28033C9.67098 9.13968 9.75 8.94891 9.75 8.75C9.75 8.55109 9.67098 8.36032 9.53033 8.21967C9.38968 8.07902 9.19891 8 9 8Z" fill="#ACADAE"/>
</svg>
