<svg width="6" height="10" viewBox="0 0 6 10" fill="none" xmlns="http://www.w3.org/2000/svg">
<path d="M2.64558 9.89162C2.61815 9.87987 2.59219 9.86533 2.56817 9.84827L0.269183 7.9841C0.1958 7.93393 0.134358 7.87011 0.0887372 7.79665C0.0431163 7.7232 0.0143096 7.64172 0.00413201 7.55734C-0.0060456 7.47297 0.0026276 7.38755 0.0296061 7.30646C0.0565851 7.22538 0.101282 7.1504 0.160875 7.08625C0.220468 7.02211 0.29366 6.97019 0.375834 6.93379C0.458007 6.89738 0.547375 6.87727 0.638294 6.87474C0.729214 6.8722 0.819709 6.88729 0.904066 6.91904C0.988423 6.9508 1.06481 6.99854 1.1284 7.05925L2.22758 7.94798L2.22758 0.722542C2.22758 0.530912 2.30914 0.34713 2.4543 0.211627C2.59947 0.0761239 2.79636 -2.80071e-07 3.00166 -2.62124e-07C3.20695 -2.44176e-07 3.40384 0.076124 3.54901 0.211627C3.69417 0.347131 3.77573 0.530912 3.77573 0.722543L3.77573 7.94798L4.87491 7.05925C5.01348 6.95002 5.19287 6.89665 5.3736 6.91088C5.46309 6.91792 5.55022 6.94135 5.63001 6.97982C5.7098 7.0183 5.78069 7.07107 5.83863 7.13512C5.89657 7.19916 5.94043 7.27324 5.9677 7.35311C5.99498 7.43298 6.00513 7.51708 5.99758 7.60061C5.98234 7.76931 5.89592 7.92545 5.75735 8.03468L3.43513 9.89884C3.41112 9.91591 3.38516 9.93045 3.35773 9.9422C3.32164 9.96574 3.28266 9.98514 3.24162 10L3.12551 10L3.00165 10L2.8778 10L2.76169 9.94942C2.72065 9.93456 2.68167 9.91516 2.64558 9.89162Z" fill="#2C2E31"/>
</svg>
