<svg width="24" height="24" viewBox="0 0 24 24" fill="none" xmlns="http://www.w3.org/2000/svg">
<path d="M20.7439 15.7206L19.9764 15.2506L20.7439 15.7206ZM19.7894 17.2794L20.5569 17.7494L19.7894 17.2794ZM3.25608 8.27942L2.48855 7.80942H2.48855L3.25608 8.27942ZM4.21063 6.72057L4.97816 7.19056L4.21063 6.72057ZM6.81851 6.06172L7.24881 5.27125L7.24881 5.27125L6.81851 6.06172ZM3.95486 10.7383L3.52456 11.5287H3.52456L3.95486 10.7383ZM17.1815 17.9383L16.7512 18.7287H16.7512L17.1815 17.9383ZM20.0451 13.2617L19.6148 14.0522L20.0451 13.2617ZM4.21063 17.2794L3.4431 17.7494H3.4431L4.21063 17.2794ZM3.25608 15.7206L4.02361 15.2506H4.02361L3.25608 15.7206ZM19.7894 6.72058L20.5569 6.25059V6.25059L19.7894 6.72058ZM20.7439 8.27943L19.9764 8.74942V8.74942L20.7439 8.27943ZM20.0451 10.7383L20.4754 11.5287L20.0451 10.7383ZM17.1815 6.06174L17.6118 6.85221V6.85221L17.1815 6.06174ZM3.95486 13.2617L4.38516 14.0522H4.38516L3.95486 13.2617ZM6.81851 17.9383L6.38821 17.1478L6.38821 17.1478L6.81851 17.9383ZM17.08 6.11698L16.6497 5.32651V5.32651L17.08 6.11698ZM6.91999 6.11697L6.48969 6.90744L6.48969 6.90744L6.91999 6.11697ZM17.08 17.883L17.5103 17.0926L17.5103 17.0926L17.08 17.883ZM6.91999 17.883L7.35029 18.6735L7.35029 18.6735L6.91999 17.883ZM11.0454 3V3.9H12.9545V3V2.1H11.0454V3ZM12.9545 21V20.1H11.0454V21V21.9H12.9545V21ZM11.0454 21V20.1C10.4375 20.1 10.0363 19.6479 10.0363 19.2H9.13634H8.23634C8.23634 20.7403 9.54465 21.9 11.0454 21.9V21ZM14.8636 19.2H13.9636C13.9636 19.6479 13.5625 20.1 12.9545 20.1V21V21.9C14.4553 21.9 15.7636 20.7403 15.7636 19.2H14.8636ZM12.9545 3V3.9C13.5625 3.9 13.9636 4.35211 13.9636 4.8H14.8636H15.7636C15.7636 3.25967 14.4553 2.1 12.9545 2.1V3ZM11.0454 3V2.1C9.54465 2.1 8.23634 3.25967 8.23634 4.8H9.13634H10.0363C10.0363 4.35211 10.4375 3.9 11.0454 3.9V3ZM20.7439 15.7206L19.9764 15.2506L19.0218 16.8094L19.7894 17.2794L20.5569 17.7494L21.5114 16.1906L20.7439 15.7206ZM3.25608 8.27942L4.02362 8.74941L4.97816 7.19056L4.21063 6.72057L3.4431 6.25058L2.48855 7.80942L3.25608 8.27942ZM4.21063 6.72057L4.97816 7.19056C5.24309 6.75791 5.87557 6.57313 6.38821 6.8522L6.81851 6.06172L7.24881 5.27125C5.93523 4.5562 4.23253 4.96137 3.4431 6.25058L4.21063 6.72057ZM3.95486 10.7383L4.38516 9.94779C3.90059 9.68402 3.77937 9.14828 4.02362 8.74941L3.25608 8.27942L2.48855 7.80942C1.67843 9.1324 2.18291 10.7984 3.52456 11.5287L3.95486 10.7383ZM19.7894 17.2794L19.0218 16.8094C18.7569 17.2421 18.1244 17.4269 17.6118 17.1478L17.1815 17.9383L16.7512 18.7287C18.0648 19.4438 19.7675 19.0386 20.5569 17.7494L19.7894 17.2794ZM20.7439 15.7206L21.5114 16.1906C22.3216 14.8676 21.8171 13.2016 20.4754 12.4713L20.0451 13.2617L19.6148 14.0522C20.0994 14.316 20.2206 14.8517 19.9764 15.2506L20.7439 15.7206ZM4.21063 17.2794L4.97816 16.8094L4.02361 15.2506L3.25608 15.7206L2.48855 16.1906L3.4431 17.7494L4.21063 17.2794ZM19.7894 6.72058L19.0218 7.19058L19.9764 8.74942L20.7439 8.27943L21.5114 7.80944L20.5569 6.25059L19.7894 6.72058ZM20.7439 8.27943L19.9764 8.74942C20.2206 9.1483 20.0994 9.68403 19.6148 9.9478L20.0451 10.7383L20.4754 11.5287C21.8171 10.7984 22.3216 9.13242 21.5114 7.80944L20.7439 8.27943ZM17.1815 6.06174L17.6118 6.85221C18.1244 6.57315 18.7569 6.75793 19.0218 7.19058L19.7894 6.72058L20.5569 6.25059C19.7675 4.96139 18.0648 4.55622 16.7512 5.27127L17.1815 6.06174ZM3.25608 15.7206L4.02361 15.2506C3.77937 14.8517 3.90059 14.316 4.38516 14.0522L3.95486 13.2617L3.52456 12.4713C2.18291 13.2016 1.67843 14.8676 2.48855 16.1906L3.25608 15.7206ZM4.21063 17.2794L3.4431 17.7494C4.23253 19.0386 5.93523 19.4438 7.24881 18.7287L6.81851 17.9383L6.38821 17.1478C5.87557 17.4269 5.24309 17.2421 4.97816 16.8094L4.21063 17.2794ZM17.08 6.11698L17.5103 6.90745L17.6118 6.85221L17.1815 6.06174L16.7512 5.27127L16.6497 5.32651L17.08 6.11698ZM6.81851 6.06172L6.38821 6.85219L6.48969 6.90744L6.91999 6.11697L7.35029 5.3265L7.24881 5.27125L6.81851 6.06172ZM17.1815 17.9383L17.6118 17.1478L17.5103 17.0926L17.08 17.883L16.6497 18.6735L16.7512 18.7287L17.1815 17.9383ZM6.91999 17.883L6.4897 17.0926L6.38821 17.1478L6.81851 17.9383L7.2488 18.7287L7.35029 18.6735L6.91999 17.883ZM3.95486 10.7383L3.52456 11.5287C3.89793 11.732 3.89794 12.268 3.52456 12.4713L3.95486 13.2617L4.38516 14.0522C6.01107 13.1671 6.01107 10.8329 4.38516 9.94779L3.95486 10.7383ZM6.91999 17.883L7.35029 18.6735C7.74974 18.4561 8.23634 18.7452 8.23634 19.2H9.13634H10.0363C10.0363 17.3796 8.08858 16.2222 6.48969 17.0926L6.91999 17.883ZM14.8636 19.2H15.7636C15.7636 18.7452 16.2503 18.456 16.6497 18.6735L17.08 17.883L17.5103 17.0926C15.9114 16.2222 13.9636 17.3796 13.9636 19.2H14.8636ZM20.0451 13.2617L20.4754 12.4713C20.1021 12.268 20.1021 11.732 20.4754 11.5287L20.0451 10.7383L19.6148 9.9478C17.9889 10.8329 17.9889 13.1671 19.6148 14.0522L20.0451 13.2617ZM6.91999 6.11697L6.48969 6.90744C8.08858 7.7778 10.0363 6.62043 10.0363 4.8H9.13634H8.23634C8.23634 5.2548 7.74974 5.54394 7.35029 5.3265L6.91999 6.11697ZM17.08 6.11698L16.6497 5.32651C16.2503 5.54395 15.7636 5.2548 15.7636 4.8H14.8636H13.9636C13.9636 6.62043 15.9114 7.77781 17.5103 6.90745L17.08 6.11698ZM15 12H14.1C14.1 13.1598 13.1598 14.1 12 14.1V15V15.9C14.1539 15.9 15.9 14.1539 15.9 12H15ZM12 15V14.1C10.8402 14.1 9.9 13.1598 9.9 12H9H8.1C8.1 14.1539 9.84609 15.9 12 15.9V15ZM9 12H9.9C9.9 10.8402 10.8402 9.9 12 9.9V9V8.1C9.84609 8.1 8.1 9.84609 8.1 12H9ZM12 9V9.9C13.1598 9.9 14.1 10.8402 14.1 12H15H15.9C15.9 9.84609 14.1539 8.1 12 8.1V9Z" fill="white"/>
</svg>
