<svg width="22" height="22" viewBox="0 0 22 22" fill="none" xmlns="http://www.w3.org/2000/svg">
<path d="M8.24992 12.6041C6.10492 12.6041 1.83325 13.6766 1.83325 15.8125V17.4166H14.6666V15.8125C14.6666 13.6766 10.3949 12.6041 8.24992 12.6041ZM3.97825 15.5833C4.74825 15.0516 6.60909 14.4375 8.24992 14.4375C9.89075 14.4375 11.7516 15.0516 12.5216 15.5833H3.97825ZM8.24992 11C10.0191 11 11.4583 9.56081 11.4583 7.79165C11.4583 6.02248 10.0191 4.58331 8.24992 4.58331C6.48075 4.58331 5.04159 6.02248 5.04159 7.79165C5.04159 9.56081 6.48075 11 8.24992 11ZM8.24992 6.41665C9.01075 6.41665 9.62492 7.03081 9.62492 7.79165C9.62492 8.55248 9.01075 9.16665 8.24992 9.16665C7.48909 9.16665 6.87492 8.55248 6.87492 7.79165C6.87492 7.03081 7.48909 6.41665 8.24992 6.41665ZM14.7033 12.6591C15.7666 13.4291 16.4999 14.4558 16.4999 15.8125V17.4166H20.1666V15.8125C20.1666 13.9608 16.9583 12.9066 14.7033 12.6591ZM13.7499 11C15.5191 11 16.9583 9.56081 16.9583 7.79165C16.9583 6.02248 15.5191 4.58331 13.7499 4.58331C13.2549 4.58331 12.7966 4.70248 12.3749 4.90415C12.9524 5.71998 13.2916 6.71915 13.2916 7.79165C13.2916 8.86415 12.9524 9.86331 12.3749 10.6791C12.7966 10.8808 13.2549 11 13.7499 11Z" fill="#2C2E31"/>
</svg>
