<svg width="24" height="24" viewBox="0 0 24 24" fill="none" xmlns="http://www.w3.org/2000/svg">
<g clip-path="url(#clip0_340_1058)">
<mask id="mask0_340_1058" style="mask-type:luminance" maskUnits="userSpaceOnUse" x="0" y="0" width="24" height="24">
<path d="M24 0H0V24H24V0Z" fill="white"/>
</mask>
<g mask="url(#mask0_340_1058)">
<path d="M23.5624 21.4478L18.9197 16.804C22.3968 12.1606 21.4514 5.57752 16.8079 2.10037C12.1645 -1.37677 5.58143 -0.431398 2.10425 4.21205C-1.37294 8.85549 -0.427473 15.4386 4.21597 18.9157C7.94661 21.7093 13.0721 21.7106 16.804 18.9187L21.4488 23.5634C22.0324 24.1471 22.9788 24.1471 23.5624 23.5634C24.1461 22.9797 24.1461 22.0334 23.5624 21.4497V21.4478ZM10.5525 18.0222C6.42654 18.0222 3.08182 14.6775 3.08182 10.5516C3.08182 6.42563 6.42659 3.0809 10.5525 3.0809C14.6784 3.0809 18.0232 6.42563 18.0232 10.5516C18.0188 14.6757 14.6767 18.0179 10.5525 18.0222Z" fill="white"/>
</g>
</g>
<defs>
<clipPath id="clip0_340_1058">
<rect width="24" height="24" fill="white"/>
</clipPath>
</defs>
</svg>
