<svg width="12" height="13" viewBox="0 0 12 13" fill="none" xmlns="http://www.w3.org/2000/svg">
<path d="M8 12.75C7.65625 12.75 7.36198 12.6276 7.11719 12.3828C6.8724 12.138 6.75 11.8438 6.75 11.5C6.75 11.1562 6.8724 10.862 7.11719 10.6172C7.36198 10.3724 7.65625 10.25 8 10.25C8.34375 10.25 8.63802 10.3724 8.88281 10.6172C9.1276 10.862 9.25 11.1562 9.25 11.5C9.25 11.8438 9.1276 12.138 8.88281 12.3828C8.63802 12.6276 8.34375 12.75 8 12.75ZM1.75 12.75C1.40625 12.75 1.11198 12.6276 0.867188 12.3828C0.622396 12.138 0.5 11.8438 0.5 11.5C0.5 11.1562 0.622396 10.862 0.867188 10.6172C1.11198 10.3724 1.40625 10.25 1.75 10.25C2.09375 10.25 2.38802 10.3724 2.63281 10.6172C2.8776 10.862 3 11.1562 3 11.5C3 11.8438 2.8776 12.138 2.63281 12.3828C2.38802 12.6276 2.09375 12.75 1.75 12.75ZM4 8.375H7.375V4.42188L4 8.375ZM2.64062 9.625C2.36979 9.625 2.17969 9.50521 2.07031 9.26562C1.96094 9.02604 1.99479 8.80208 2.17188 8.59375L8.125 1.60938C8.33333 1.36979 8.5651 1.1875 8.82031 1.0625C9.07552 0.9375 9.35417 0.875 9.65625 0.875C10.2396 0.875 10.7344 1.07812 11.1406 1.48438C11.5469 1.89062 11.75 2.38542 11.75 2.96875V3.375H10.5V2.96875C10.5 2.72917 10.4193 2.52865 10.2578 2.36719C10.0964 2.20573 9.89583 2.125 9.65625 2.125C9.54167 2.125 9.4401 2.14583 9.35156 2.1875C9.26302 2.22917 9.18229 2.29167 9.10938 2.375L8.625 2.92188V8.375C8.625 8.71875 8.5026 9.01302 8.25781 9.25781C8.01302 9.5026 7.71875 9.625 7.375 9.625H2.64062ZM4 5L0.953125 1.95312C1.45312 1.59896 1.97917 1.33073 2.53125 1.14844C3.08333 0.966146 3.65625 0.875 4.25 0.875C4.71875 0.875 5.17969 0.932292 5.63281 1.04688C6.08594 1.16146 6.52083 1.33333 6.9375 1.5625L4 5ZM3.92188 3.15625L4.78125 2.15625C4.69792 2.14583 4.60938 2.13802 4.51562 2.13281C4.42188 2.1276 4.33333 2.125 4.25 2.125C4.04167 2.125 3.84115 2.14062 3.64844 2.17188C3.45573 2.20312 3.26042 2.24479 3.0625 2.29688L3.92188 3.15625Z" fill="#757779"/>
</svg>
