<svg width="16" height="16" viewBox="0 0 16 16" fill="none" xmlns="http://www.w3.org/2000/svg">
<path d="M13.4 11.5667C13.3961 11.0443 13.1879 10.5442 12.82 10.1733L12.6667 10C12.0919 9.42529 11.3128 9.10169 10.5 9.1C10.037 9.1035 9.58087 9.21297 9.16667 9.42L8.60001 9.7C8.11766 9.4664 7.67816 9.15311 7.3 8.77334C6.921 8.38341 6.61003 7.93273 6.38 7.44L6.66001 6.87334C6.87048 6.46012 6.9823 6.00372 6.98667 5.54C6.97974 5.13424 6.89252 4.73387 6.73004 4.36199C6.56756 3.99011 6.33303 3.6541 6.04001 3.37334L5.85334 3.19334C5.47863 2.81816 4.97026 2.60714 4.44 2.60667H3.88001C3.34957 2.60667 2.84086 2.81738 2.46579 3.19246C2.09072 3.56753 1.88 4.07624 1.88 4.60667V4.66667C1.90105 5.76029 2.07151 6.8459 2.38667 7.89334C2.79651 9.25001 3.52843 10.4874 4.52001 11.5C5.529 12.4943 6.76441 13.2287 8.12001 13.64C9.16659 13.9597 10.2525 14.1325 11.3467 14.1533H11.3933C11.9238 14.1533 12.4325 13.9426 12.8076 13.5676C13.1826 13.1925 13.3933 12.6838 13.3933 12.1533V11.5933L13.4 11.5667ZM11.4 12.8067C10.4323 12.7912 9.47158 12.6385 8.54667 12.3533C7.39625 12.0059 6.34658 11.3862 5.48667 10.5467C4.64896 9.68654 4.03145 8.63676 3.68667 7.48667C3.40646 6.55853 3.25614 5.59605 3.24001 4.62667C3.24001 4.44986 3.31024 4.28029 3.43527 4.15527C3.56029 4.03024 3.72986 3.96 3.90667 3.96H4.46667C4.55441 3.9595 4.64138 3.97631 4.72261 4.00949C4.80383 4.04267 4.87771 4.09155 4.94001 4.15334L5.12 4.33334C5.42992 4.65573 5.60209 5.08615 5.6 5.53334C5.60005 5.80015 5.53603 6.06307 5.41334 6.3L4.99334 7.14667C4.95372 7.23353 4.93322 7.32788 4.93322 7.42334C4.93322 7.5188 4.95372 7.61315 4.99334 7.7C5.30136 8.44817 5.75453 9.12792 6.32667 9.7C6.89853 10.2724 7.57834 10.7256 8.32667 11.0333C8.41353 11.073 8.50788 11.0935 8.60334 11.0935C8.6988 11.0935 8.79315 11.073 8.88 11.0333L9.72667 10.6067C10.0514 10.4413 10.4205 10.3839 10.7801 10.4426C11.1398 10.5014 11.4714 10.6733 11.7267 10.9333L11.9067 11.12C12.0298 11.2442 12.0993 11.4118 12.1 11.5867V12.14C12.1002 12.231 12.0817 12.3211 12.0457 12.4047C12.0097 12.4883 11.957 12.5637 11.8908 12.6261C11.8246 12.6886 11.7463 12.7368 11.6608 12.7679C11.5752 12.7989 11.4842 12.8121 11.3933 12.8067H11.4ZM8.29334 4.93334C8.26861 4.7583 8.31442 4.58061 8.42068 4.43934C8.52695 4.29806 8.68497 4.20478 8.86001 4.18C8.97095 4.17134 9.0824 4.17134 9.19334 4.18C9.48046 4.18406 9.76554 4.22896 10.04 4.31334C10.4322 4.43852 10.7887 4.65573 11.0798 4.94684C11.3709 5.23794 11.5882 5.59448 11.7133 5.98667C11.7993 6.26059 11.8421 6.54625 11.84 6.83334C11.851 6.94418 11.851 7.05583 11.84 7.16667C11.8161 7.34348 11.723 7.50357 11.5811 7.61172C11.4392 7.71986 11.2601 7.76721 11.0833 7.74334C10.9065 7.71947 10.7464 7.62634 10.6383 7.48444C10.5301 7.34253 10.4828 7.16348 10.5067 6.98667C10.5067 6.98667 10.5067 6.92 10.5067 6.83334C10.51 6.68174 10.4875 6.53069 10.44 6.38667C10.3827 6.19782 10.2797 6.02602 10.1402 5.88647C10.0007 5.74693 9.82885 5.64396 9.64001 5.58667C9.49541 5.54092 9.34498 5.51622 9.19334 5.51334C9.14454 5.50903 9.09547 5.50903 9.04667 5.51334C8.95901 5.52549 8.86981 5.52006 8.78427 5.49738C8.69873 5.4747 8.61857 5.43521 8.54845 5.38123C8.47832 5.32724 8.41965 5.25983 8.37585 5.18293C8.33206 5.10604 8.304 5.02119 8.29334 4.93334ZM14.4067 6.18667V6.28C14.4067 6.45682 14.3364 6.62638 14.2114 6.75141C14.0864 6.87643 13.9168 6.94667 13.74 6.94667C13.5632 6.94667 13.3936 6.87643 13.2686 6.75141C13.1436 6.62638 13.0733 6.45682 13.0733 6.28V6.21334C13.071 5.8928 13.0239 5.57416 12.9333 5.26667C12.7882 4.74534 12.5124 4.26967 12.1321 3.88469C11.7518 3.49971 11.2795 3.21815 10.76 3.06667C10.4525 2.97613 10.1339 2.929 9.81334 2.92667H9.75334C9.66579 2.92886 9.57867 2.91378 9.49695 2.8823C9.41523 2.85082 9.34051 2.80355 9.27705 2.74319C9.2136 2.68284 9.16266 2.61057 9.12713 2.53052C9.0916 2.45048 9.07219 2.36422 9.07 2.27667C9.06782 2.18912 9.08289 2.102 9.11437 2.02028C9.14586 1.93856 9.19312 1.86384 9.25348 1.80039C9.31384 1.73693 9.38611 1.68599 9.46615 1.65046C9.5462 1.61494 9.63246 1.59553 9.72001 1.59334H9.81334C10.2651 1.59511 10.7143 1.66248 11.1467 1.79334C11.8745 2.00532 12.5371 2.39748 13.0732 2.93352C13.6092 3.46957 14.0014 4.13217 14.2133 4.86C14.3422 5.29041 14.4074 5.73738 14.4067 6.18667Z" fill="#2C2E31"/>
</svg>
