<svg width="13" height="13" viewBox="0 0 13 13" fill="none" xmlns="http://www.w3.org/2000/svg">
<path d="M6.5 12.75C5.73958 12.6563 4.98438 12.4505 4.23438 12.1328C3.48438 11.8151 2.8151 11.3594 2.22656 10.7656C1.63802 10.1719 1.16146 9.42188 0.796875 8.51563C0.432292 7.60938 0.25 6.52083 0.25 5.25V4.625H0.875C1.40625 4.625 1.95313 4.69271 2.51563 4.82813C3.07813 4.96354 3.60417 5.16667 4.09375 5.4375C4.21875 4.54167 4.5026 3.6224 4.94531 2.67969C5.38802 1.73698 5.90625 0.927083 6.5 0.25C7.09375 0.927083 7.61198 1.73698 8.05469 2.67969C8.4974 3.6224 8.78125 4.54167 8.90625 5.4375C9.39583 5.16667 9.92188 4.96354 10.4844 4.82813C11.0469 4.69271 11.5938 4.625 12.125 4.625H12.75V5.25C12.75 6.52083 12.5677 7.60938 12.2031 8.51563C11.8385 9.42188 11.362 10.1719 10.7734 10.7656C10.1849 11.3594 9.51823 11.8151 8.77344 12.1328C8.02865 12.4505 7.27083 12.6563 6.5 12.75ZM6.46875 11.4688C6.35417 9.73958 5.84115 8.43229 4.92969 7.54688C4.01823 6.66146 2.88542 6.11458 1.53125 5.90625C1.64583 7.6875 2.17448 9.01563 3.11719 9.89063C4.0599 10.7656 5.17708 11.2917 6.46875 11.4688ZM6.5 7.5C6.65625 7.27083 6.84635 7.03385 7.07031 6.78906C7.29427 6.54427 7.51042 6.33333 7.71875 6.15625C7.69792 5.5625 7.58073 4.94271 7.36719 4.29688C7.15365 3.65104 6.86458 3.02083 6.5 2.40625C6.13542 3.02083 5.84635 3.65104 5.63281 4.29688C5.41927 4.94271 5.30208 5.5625 5.28125 6.15625C5.48958 6.33333 5.70833 6.54427 5.9375 6.78906C6.16667 7.03385 6.35417 7.27083 6.5 7.5ZM7.71875 11.1875C8.10417 11.0625 8.50521 10.8802 8.92188 10.6406C9.33854 10.401 9.72656 10.0755 10.0859 9.66406C10.4453 9.25261 10.7526 8.73958 11.0078 8.125C11.263 7.51042 11.4167 6.77083 11.4688 5.90625C10.4896 6.05208 9.63021 6.3776 8.89063 6.88281C8.15104 7.38802 7.58333 8.03125 7.1875 8.8125C7.3125 9.14583 7.41927 9.51042 7.50781 9.90625C7.59635 10.3021 7.66667 10.7292 7.71875 11.1875Z" fill="#757779"/>
</svg>
